<svg width="81" height="31" viewBox="0 0 81 31" fill="none" xmlns="http://www.w3.org/2000/svg">
<path d="M25.9659 19.7273H26.733L29.3714 26.0625H29.4354L32.0739 19.7273H32.8409V27H32.2159V21.13H32.1591L29.7053 27H29.1016L26.6477 21.13H26.5909V27H25.9659V19.7273ZM34.7745 27V19.7273H38.9933V20.3239H35.4386V23.0618H38.7695V23.6584H35.4386V26.4034H39.0643V27H34.7745ZM40.712 27V19.7273H43.0593C43.5754 19.7273 44.0063 19.8208 44.3519 20.0078C44.6999 20.1925 44.9615 20.4493 45.1367 20.7784C45.3143 21.1051 45.4031 21.4804 45.4031 21.9041C45.4031 22.3279 45.3143 22.7019 45.1367 23.0263C44.9615 23.3506 44.7011 23.6039 44.3555 23.7862C44.0098 23.9685 43.5813 24.0597 43.07 24.0597H41.0707V23.4524H43.0522C43.431 23.4524 43.7459 23.3897 43.9968 23.2642C44.2501 23.1387 44.4383 22.96 44.5614 22.728C44.6869 22.496 44.7496 22.2214 44.7496 21.9041C44.7496 21.5869 44.6869 21.3099 44.5614 21.0732C44.436 20.834 44.2466 20.6494 43.9933 20.5192C43.7423 20.389 43.4251 20.3239 43.0415 20.3239H41.3761V27H40.712ZM43.9187 23.7188L45.7085 27H44.9414L43.1694 23.7188H43.9187ZM52.6847 19.7273V27H52.0384L47.7415 20.9098H47.6847V27H47.0206V19.7273H47.6634L51.9744 25.8246H52.0312V19.7273H52.6847Z" fill="#028BC5"/>
<path d="M59.5614 27H57.4308V19.7273H59.6893C60.3829 19.7273 60.976 19.8717 61.4684 20.1605C61.9632 20.4493 62.342 20.8636 62.6048 21.4034C62.8675 21.9432 62.9989 22.5907 62.9989 23.3459C62.9989 24.1082 62.864 24.7628 62.5941 25.3097C62.3266 25.8542 61.936 26.272 61.4222 26.5632C60.9109 26.8544 60.2906 27 59.5614 27ZM58.0948 26.4034H59.5224C60.1474 26.4034 60.6706 26.2803 61.092 26.0341C61.5134 25.7879 61.8294 25.4363 62.0401 24.9794C62.2508 24.5225 62.3562 23.978 62.3562 23.3459C62.3538 22.7185 62.2496 22.1787 62.0437 21.7266C61.8401 21.2744 61.5371 20.9276 61.1346 20.6861C60.7345 20.4446 60.2397 20.3239 59.6502 20.3239H58.0948V26.4034ZM64.6085 27V19.7273H68.8272V20.3239H65.2725V23.0618H68.6035V23.6584H65.2725V26.4034H68.8983V27H64.6085ZM70.5566 19.7273L72.8294 26.1371H72.8933L75.166 19.7273H75.862L73.2164 27H72.5062L69.8606 19.7273H70.5566Z" fill="white"/>
<rect y="3" width="10" height="10" rx="5" fill="white"/>
<rect x="13" y="3" width="10" height="10" rx="5" fill="#028BC5"/>
<rect y="18" width="10" height="10" rx="5" fill="#028BC5"/>
<rect x="13" y="18" width="10" height="10" rx="5" fill="white"/>
<path d="M25.8217 13V3.54545H27.8207V7.71413H27.9453L31.3477 3.54545H33.7436L30.2351 7.77876L33.7852 13H31.3938L28.804 9.11293L27.8207 10.3132V13H25.8217ZM34.7846 13V3.54545H36.7836V7.44638H40.8414V3.54545H42.8358V13H40.8414V9.09446H36.7836V13H34.7846ZM50.3237 3.54545H52.3226V9.68537C52.3226 10.3748 52.158 10.978 51.8287 11.495C51.5024 12.0121 51.0454 12.4152 50.4576 12.7045C49.8697 12.9908 49.185 13.1339 48.4032 13.1339C47.6184 13.1339 46.9321 12.9908 46.3443 12.7045C45.7565 12.4152 45.2994 12.0121 44.9732 11.495C44.647 10.978 44.4838 10.3748 44.4838 9.68537V3.54545H46.4828V9.51456C46.4828 9.87464 46.5613 10.1947 46.7182 10.4748C46.8783 10.7549 47.1029 10.9749 47.3922 11.1349C47.6815 11.295 48.0185 11.375 48.4032 11.375C48.791 11.375 49.128 11.295 49.4142 11.1349C49.7035 10.9749 49.9267 10.7549 50.0836 10.4748C50.2437 10.1947 50.3237 9.87464 50.3237 9.51456V3.54545ZM53.6072 5.19354V3.54545H61.3721V5.19354H58.4775V13H56.5017V5.19354H53.6072ZM67.7797 6.26456C67.7428 5.89216 67.5843 5.60286 67.3042 5.39666C67.0242 5.19046 66.6441 5.08736 66.164 5.08736C65.8377 5.08736 65.5623 5.13352 65.3376 5.22585C65.113 5.3151 64.9406 5.43975 64.8206 5.59979C64.7036 5.75982 64.6452 5.94141 64.6452 6.14453C64.639 6.3138 64.6744 6.46153 64.7513 6.58771C64.8314 6.7139 64.9406 6.82315 65.0791 6.91548C65.2176 7.00473 65.3776 7.08321 65.5592 7.15092C65.7408 7.21555 65.9347 7.27095 66.1409 7.31712L66.9903 7.52024C67.4027 7.61257 67.7813 7.73568 68.126 7.88956C68.4707 8.04344 68.7692 8.23272 69.0216 8.45739C69.2739 8.68205 69.4694 8.94673 69.6079 9.25142C69.7494 9.55611 69.8218 9.90542 69.8248 10.2994C69.8218 10.878 69.674 11.3796 69.3817 11.8043C69.0924 12.226 68.6738 12.5537 68.126 12.7876C67.5812 13.0185 66.9242 13.1339 66.1547 13.1339C65.3915 13.1339 64.7267 13.0169 64.1604 12.783C63.5972 12.5491 63.1571 12.2029 62.8401 11.7443C62.5262 11.2827 62.3615 10.7118 62.3461 10.0316H64.2805C64.302 10.3486 64.3928 10.6133 64.5528 10.8256C64.7159 11.0349 64.9329 11.1934 65.2037 11.3011C65.4777 11.4058 65.787 11.4581 66.1317 11.4581C66.4702 11.4581 66.7641 11.4089 67.0134 11.3104C67.2658 11.2119 67.4612 11.0749 67.5997 10.8995C67.7382 10.7241 67.8074 10.5225 67.8074 10.2947C67.8074 10.0824 67.7443 9.90388 67.6182 9.75923C67.4951 9.61458 67.3135 9.49148 67.0734 9.38991C66.8364 9.28835 66.5456 9.19602 66.2009 9.11293L65.1714 8.8544C64.3743 8.66051 63.7449 8.35736 63.2833 7.94496C62.8216 7.53255 62.5924 6.97704 62.5954 6.27841C62.5924 5.70597 62.7447 5.20585 63.0525 4.77805C63.3633 4.35026 63.7896 4.01634 64.3312 3.77628C64.8729 3.53622 65.4884 3.41619 66.1778 3.41619C66.8795 3.41619 67.492 3.53622 68.0152 3.77628C68.5415 4.01634 68.9508 4.35026 69.2432 4.77805C69.5355 5.20585 69.6863 5.70135 69.6956 6.26456H67.7797ZM79.8576 8.27273C79.8576 9.30374 79.6622 10.1809 79.2713 10.9041C78.8835 11.6274 78.3542 12.1798 77.6832 12.5614C77.0154 12.94 76.2644 13.1293 75.4304 13.1293C74.5902 13.1293 73.8362 12.9384 73.1683 12.5568C72.5005 12.1752 71.9727 11.6228 71.5849 10.8995C71.1971 10.1763 71.0032 9.30066 71.0032 8.27273C71.0032 7.24171 71.1971 6.36458 71.5849 5.64134C71.9727 4.91809 72.5005 4.36719 73.1683 3.98864C73.8362 3.60701 74.5902 3.41619 75.4304 3.41619C76.2644 3.41619 77.0154 3.60701 77.6832 3.98864C78.3542 4.36719 78.8835 4.91809 79.2713 5.64134C79.6622 6.36458 79.8576 7.24171 79.8576 8.27273ZM77.831 8.27273C77.831 7.60488 77.7309 7.04167 77.5309 6.5831C77.3339 6.12453 77.0554 5.77675 76.6953 5.53977C76.3352 5.30279 75.9136 5.1843 75.4304 5.1843C74.9472 5.1843 74.5256 5.30279 74.1655 5.53977C73.8054 5.77675 73.5253 6.12453 73.3253 6.5831C73.1283 7.04167 73.0298 7.60488 73.0298 8.27273C73.0298 8.94058 73.1283 9.50379 73.3253 9.96236C73.5253 10.4209 73.8054 10.7687 74.1655 11.0057C74.5256 11.2427 74.9472 11.3612 75.4304 11.3612C75.9136 11.3612 76.3352 11.2427 76.6953 11.0057C77.0554 10.7687 77.3339 10.4209 77.5309 9.96236C77.7309 9.50379 77.831 8.94058 77.831 8.27273Z" fill="white"/>
</svg>
